<?xml version="1.0" encoding="UTF-8"?>
<!-- Generator: visioncortex VTracer 0.6.12 -->
<svg version="1.1" xmlns="http://www.w3.org/2000/svg" width="1254" height="1254">
<path d="M0 0 C4.138 2.069 6.35 4.108 9.595 7.368 C10.155 7.928 10.155 7.928 12.991 10.765 C14.196 11.979 15.4 13.194 16.641 14.445 C17.878 15.685 19.115 16.926 20.39 18.203 C24.348 22.173 28.299 26.149 32.25 30.125 C34.929 32.814 37.609 35.503 40.289 38.191 C46.865 44.789 53.434 51.392 60 58 C59.341 67.729 58.26 77.337 56.962 87 C56.86 87.774 56.86 87.774 56.341 91.693 C55.664 96.796 54.982 101.898 54.301 107 C53.823 110.595 53.346 114.191 52.868 117.786 C51.61 127.265 50.347 136.743 49.083 146.221 C47.819 155.704 46.559 165.188 45.299 174.672 C42.735 193.958 40.167 213.244 37.596 232.529 C37.038 236.715 36.48 240.901 35.922 245.086 C34.282 257.391 32.642 269.696 31 282 C34.3 282.33 37.6 282.66 41 283 C41.385 281.384 41.77 279.768 42.167 278.103 C51.15 240.426 60.175 202.758 69.241 165.1 C72.709 150.696 76.175 136.291 79.613 121.879 C79.879 120.767 80.144 119.655 80.417 118.509 C81.603 113.54 82.787 108.569 83.968 103.598 C84.165 102.77 84.165 102.77 85.164 98.578 C85.499 97.17 85.833 95.761 86.178 94.31 C87 91 87 91 88 88 C98.63 93.315 106.759 103.662 115 112 C114.328 118.235 112.637 124.079 110.84 130.062 C110.683 130.593 110.683 130.593 109.889 133.277 C109.24 135.468 108.59 137.658 107.938 139.847 C96.972 176.701 86.805 213.771 76.746 250.88 C75.965 253.76 75.183 256.641 74.402 259.521 C73.434 263.091 72.467 266.661 71.503 270.232 C71.07 271.827 70.638 273.422 70.192 275.066 C69.815 276.459 69.439 277.852 69.051 279.288 C68.124 282.563 67.109 285.782 66 289 C67.547 289.33 69.094 289.66 70.688 290 C91.147 295.151 110.697 304.655 129 315 C129.134 314.565 129.134 314.565 129.813 312.362 C130.965 309.098 132.337 306.244 133.984 303.203 C134.583 302.093 135.181 300.983 135.797 299.839 C136.442 298.655 137.086 297.47 137.75 296.25 C138.419 295.012 139.088 293.773 139.777 292.497 C141.167 289.923 142.56 287.35 143.954 284.777 C146.445 280.178 148.922 275.571 151.397 270.964 C156.947 260.64 162.525 250.333 168.11 240.029 C176.354 224.816 184.553 209.579 192.714 194.322 C211.693 158.844 211.693 158.844 217 150 C229.87 149.67 242.74 149.34 256 149 C250.717 162.207 241.989 174.288 234.517 186.37 C228.273 196.496 222.201 206.72 216.148 216.96 C210.913 225.805 205.608 234.604 200.25 243.375 C193.41 254.581 186.809 265.911 180.281 277.301 C177.739 281.732 175.147 286.13 172.5 290.5 C168.285 297.469 164.2 304.511 160.125 311.562 C159.47 312.694 158.814 313.826 158.139 314.992 C157.518 316.069 156.897 317.145 156.258 318.254 C155.702 319.216 155.147 320.179 154.575 321.17 C152.959 324.073 151.464 327.018 150 330 C152.97 332.31 155.94 334.62 159 337 C159.66 335.68 160.32 334.36 161 333 C162.556 330.648 164.144 328.318 165.75 326 C166.739 324.572 167.727 323.143 168.746 321.672 C173.284 315.157 177.831 308.648 182.391 302.148 C184.781 298.741 187.167 295.329 189.547 291.914 C196.183 282.399 202.907 272.953 209.719 263.562 C213.189 258.737 216.602 253.876 220 249 C225.534 241.06 231.169 233.199 236.852 225.363 C239.931 221.096 242.972 216.804 246 212.5 C251.246 205.047 256.569 197.652 261.914 190.27 C265.422 185.417 268.9 180.544 272.375 175.668 C276.664 169.675 280.99 163.708 285.312 157.738 C286.91 155.517 288.482 153.277 290 151 C306.784 149.734 323.577 148.622 340.377 147.58 C342.575 147.444 344.774 147.307 346.972 147.168 C350.11 146.971 353.248 146.778 356.387 146.586 C358.214 146.473 360.042 146.36 361.925 146.244 C366.627 146.018 371.294 145.955 376 146 C376.115 175.021 376.023 203.992 375 233 C374.144 233.723 373.288 234.446 372.407 235.191 C366.544 240.147 360.689 245.111 354.875 250.125 C350.733 253.685 346.561 257.192 342.312 260.625 C337.628 264.424 333.191 268.444 328.754 272.527 C325.168 275.747 321.433 278.759 317.684 281.785 C315.053 283.956 312.521 286.202 310 288.5 C306.604 291.596 303.138 294.552 299.562 297.438 C294.789 301.298 290.266 305.374 285.75 309.531 C282.188 312.729 278.474 315.714 274.75 318.719 C271.919 321.067 269.206 323.509 266.5 326 C262.053 330.094 257.453 333.924 252.75 337.719 C249.919 340.067 247.206 342.509 244.5 345 C240.03 349.114 235.41 352.971 230.684 356.785 C228.053 358.956 225.521 361.202 223 363.5 C216.254 369.643 209.126 375.307 202 381 C204 386 204 386 207 391 C211.622 388.689 215.413 385.837 219.562 382.75 C221.285 381.471 223.008 380.193 224.73 378.914 C225.609 378.261 226.487 377.608 227.392 376.935 C231.374 373.981 235.376 371.056 239.375 368.125 C246.134 363.148 252.833 358.1 259.5 353 C269.246 345.545 279.103 338.254 289 331 C292.167 328.668 295.334 326.334 298.5 324 C300.065 322.848 301.63 321.695 303.242 320.508 C306.438 318.152 309.63 315.793 312.82 313.43 C321.715 306.849 330.669 300.371 339.727 294.016 C344.322 290.773 348.882 287.486 353.438 284.188 C356.291 282.125 359.146 280.062 362 278 C363.084 277.216 364.168 276.433 365.285 275.625 C371.766 271 371.766 271 374 271 C373.857 274.708 373.711 278.417 373.562 282.125 C373.523 283.152 373.484 284.18 373.443 285.238 C373.123 293.172 372.604 301.083 372 309 C371.441 309.375 371.441 309.375 368.614 311.272 C364.374 314.119 360.136 316.97 355.899 319.822 C354.083 321.043 352.266 322.264 350.448 323.484 C339.502 330.828 328.682 338.298 318.031 346.067 C311.078 351.126 304.033 356.053 297 361 C294.166 362.999 291.333 364.999 288.5 367 C284.264 369.991 280.027 372.981 275.785 375.965 C268.491 381.1 261.226 386.269 254 391.5 C232.383 407.148 232.383 407.148 222 414 C223.102 419.51 225.24 424.122 227.562 429.188 C231.517 438.025 234.795 446.929 237.625 456.188 C237.967 457.303 238.31 458.419 238.662 459.569 C239.925 463.82 241 467.541 241 472 C262.082 465.374 283.128 458.655 304.122 451.756 C328.01 443.907 351.957 436.27 375.97 428.813 C381.933 426.96 387.889 425.089 393.841 423.2 C398.35 421.771 402.863 420.356 407.375 418.938 C408.997 418.418 410.619 417.899 412.29 417.364 C413.03 417.133 413.03 417.133 416.773 415.965 C418.057 415.559 419.34 415.153 420.662 414.734 C424 414 424 414 429 415 C431.648 417.477 431.648 417.477 434.375 420.625 C437.497 424.168 440.595 427.595 443.938 430.938 C451 438 451 438 451 441 C449.644 441.36 448.288 441.72 446.891 442.091 C392.547 456.536 338.325 471.359 284.426 487.392 C276.397 489.771 268.356 492.109 260.312 494.438 C259.028 494.809 257.744 495.181 256.421 495.565 C253.614 496.377 250.807 497.189 248 498 C248 501.96 248 505.92 248 510 C249.228 509.773 250.456 509.546 251.72 509.312 C282.063 503.704 312.425 498.22 342.815 492.873 C346.063 492.301 349.311 491.73 352.559 491.158 C365.885 488.811 379.212 486.47 392.54 484.133 C396.792 483.387 401.044 482.641 405.296 481.894 C416.905 479.855 428.515 477.823 440.128 475.801 C443.647 475.187 447.165 474.572 450.683 473.954 C455.516 473.107 460.349 472.267 465.184 471.43 C465.889 471.305 465.889 471.305 469.462 470.675 C470.757 470.452 472.053 470.229 473.388 470 C474.504 469.805 475.62 469.611 476.77 469.41 C480.212 468.973 483.534 468.93 487 469 C489.188 471.333 491.375 473.667 493.562 476 C493.9 476.359 493.9 476.359 495.607 478.179 C499.049 481.848 502.486 485.521 505.914 489.203 C512.628 496.404 519.431 503.474 526.43 510.398 C529.783 513.793 532.867 517.402 536 521 C539.292 524.375 542.636 527.697 546 531 C544.823 535.707 543.34 536.945 539.875 540.25 C536.647 543.387 533.584 546.477 530.625 549.875 C526.318 554.776 521.707 559.304 517.074 563.895 C513.546 567.458 510.288 571.215 507 575 C504.497 577.536 501.962 580.037 499.426 582.539 C497.26 584.736 495.214 587.049 493.188 589.375 C490.567 592.355 488.114 594.6 485 597 C483.751 596.851 482.502 596.703 481.216 596.549 C422.397 589.548 363.57 582.639 304.688 576.188 C303.506 576.058 302.325 575.929 301.108 575.795 C259.725 571.26 259.725 571.26 247 570 C246.67 573.96 246.34 577.92 246 582 C247.284 582.246 248.568 582.491 249.891 582.744 C270.935 586.858 291.848 591.556 312.77 596.242 C315.903 596.944 319.037 597.645 322.17 598.345 C347.687 604.052 373.188 609.82 398.625 615.875 C399.752 616.143 400.88 616.411 402.041 616.688 C408.278 618.175 414.51 619.68 420.738 621.203 C423.076 621.774 425.415 622.343 427.754 622.91 C431.637 623.853 435.518 624.804 439.398 625.758 C440.611 626.051 441.824 626.345 443.073 626.647 C451.657 628.771 451.657 628.771 455 631 C454.143 631.918 453.286 632.836 452.402 633.781 C441.915 645.037 441.915 645.037 438 649.562 C435.431 652.507 432.777 655.256 430 658 C428.999 657.711 427.999 657.422 426.968 657.124 C366.663 639.765 305.931 623.998 245 609 C243.68 608.67 242.36 608.34 241 608 C240.703 608.902 240.703 608.902 239.199 613.465 C233.643 630.078 227.344 646.098 220 662 C215.37 663.21 210.732 664.279 206.043 665.227 C149.598 676.674 97.7 699.888 52 735 C50.737 735.968 49.473 736.936 48.172 737.934 C40.264 744.074 32.595 750.477 25 757 C29.722 762.693 34.797 767.884 40.062 773.062 C44.952 777.872 49.723 782.622 54 788 C58.565 785.261 62.051 781.989 65.758 778.191 C69.903 774.14 74.475 770.614 79 767 C80.101 766.094 81.202 765.188 82.336 764.254 C136.698 719.856 200.848 692.043 270 681 C271.131 680.819 272.261 680.638 273.426 680.452 C307.083 675.383 344.412 675.546 378 681 C379.089 681.172 380.179 681.343 381.301 681.52 C428.728 689.172 480.006 703.546 520 731 C515.021 740.574 509.779 749.886 504 759 C501.271 757.709 498.542 756.417 495.812 755.125 C494.066 754.301 492.319 753.478 490.52 752.629 C486.998 750.961 483.503 749.258 480.012 747.527 C396.009 706.214 298.93 700.093 210.347 730.159 C159.868 747.947 116.597 777.499 77 813 C79.331 817.662 82.262 821.285 85.5 825.375 C91.571 833.089 97.382 840.948 103 849 C107.826 845.566 112.191 841.942 116.5 837.875 C134.075 821.616 154.96 808.314 176 797 C177.147 796.349 178.295 795.698 179.477 795.027 C247.368 757.168 329.092 751.137 403.212 771.718 C432.276 780.131 460.233 792.128 486 808 C484.8 812.799 482.683 816.378 480.25 820.688 C479.389 822.218 478.528 823.748 477.641 825.324 C476.769 826.867 475.898 828.41 475 830 C473.331 832.999 471.664 835.998 470 839 C465.309 837.124 461.047 834.857 456.638 832.405 C426.375 815.641 394.925 804.588 361 798 C359.323 797.658 357.646 797.317 355.918 796.965 C327.638 792.135 297.051 793.239 269 799 C267.199 799.362 265.398 799.724 263.543 800.098 C211.431 811.579 160.788 839.212 123 877 C124.035 881.141 125.494 883.781 127.684 887.426 C128.442 888.691 129.2 889.955 129.981 891.259 C130.791 892.596 131.602 893.934 132.438 895.312 C133.259 896.673 134.081 898.033 134.927 899.435 C152.43 928.285 172.779 958.159 207.062 968 C222.824 971.298 237.258 968.104 251 960 C264.91 950.632 276.058 937.322 286 924 C286.664 923.123 287.328 922.247 288.012 921.344 C289.351 919.57 290.678 917.787 292 916 C295.647 919.498 298.731 923.138 301.75 927.188 C324.176 956.603 352.52 973.233 389 979 C383.859 989.282 376.56 998.585 370 1008 C340.088 1001.776 316.197 987.904 295 966 C290.492 968.254 288.2 970.775 284.75 974.438 C266.958 992.413 245.999 1002.906 220.688 1003.438 C198.442 1003.324 180.515 995.136 163 982 C163.208 982.893 163.415 983.787 163.629 984.707 C164.786 989.798 165.9 994.897 167 1000 C167.134 1000.62 167.134 1000.62 167.812 1003.756 C172.373 1025.066 175.881 1046.305 178 1068 C178.105 1069.04 178.211 1070.079 178.319 1071.15 C179.195 1080.864 179.112 1090.566 179.062 1100.312 C179.058 1102.019 179.053 1103.725 179.049 1105.482 C179.037 1109.655 179.019 1113.827 179 1118 C168.44 1121.63 157.88 1125.26 147 1129 C146.963 1126.386 146.925 1123.772 146.887 1121.078 C145.645 1048.456 135.373 973.897 99.309 909.549 C98 907 98 907 98 905 C91.027 911.762 85.032 919.115 79.375 927 C78.29 928.506 77.204 930.011 76.086 931.562 C75.068 933.027 74.049 934.491 73 936 C72.023 937.382 71.046 938.764 70.039 940.188 C67.725 944.514 67.869 945.42 69 950 C70.614 953.928 72.28 957.807 74 961.688 C96.926 1014.724 114.864 1087.077 104 1145 C98.855 1146.836 93.709 1148.668 88.562 1150.5 C87.092 1151.025 85.622 1151.549 84.107 1152.09 C83.41 1152.338 83.41 1152.338 79.879 1153.594 C78.585 1154.055 77.292 1154.515 75.959 1154.99 C73 1156 73 1156 72 1156 C72.01 1154.779 72.021 1153.559 72.032 1152.301 C72.449 1096.079 68.641 1043.299 49.936 989.925 C49 987 49 987 48 982 C47.34 982 46.68 982 46 982 C45.593 983.258 45.185 984.516 44.766 985.812 C43.247 990.274 41.604 994.661 39.892 999.052 C19.561 1051.549 15.406 1106.177 16 1162 C15.67 1162.33 15.34 1162.66 15 1163 C4.77 1163 -5.46 1163 -16 1163 C-16.33 1162.67 -16.66 1162.34 -17 1162 C-16.99 1160.885 -16.979 1159.77 -16.968 1158.621 C-16.503 1101.349 -20.071 1042.128 -44.207 989.156 C-46 985 -46 985 -46 982 C-46.66 982 -47.32 982 -48 982 C-48.427 983.441 -48.853 984.882 -49.293 986.367 C-50.893 991.647 -52.593 996.883 -54.312 1002.125 C-63.236 1030.03 -68.731 1058.779 -71 1088 C-71.088 1089.042 -71.175 1090.085 -71.265 1091.159 C-72.243 1104.266 -72.111 1117.366 -72.062 1130.5 C-72.057 1132.884 -72.053 1135.268 -72.049 1137.652 C-72.038 1143.435 -72.021 1149.217 -72 1155 C-72.66 1155.33 -73.32 1155.66 -74 1156 C-78.981 1154.192 -83.959 1152.378 -88.938 1150.562 C-90.36 1150.046 -91.782 1149.53 -93.248 1148.998 C-94.598 1148.505 -95.949 1148.012 -97.34 1147.504 C-98.591 1147.048 -99.843 1146.593 -101.133 1146.123 C-104 1145 -104 1145 -105 1144 C-105.677 1075.184 -97.029 1009.614 -67 947 C-73.154 931.615 -85.368 917.568 -96 905 C-138.219 951.311 -144.988 1046.283 -147.125 1104.875 C-147.212 1107.135 -147.299 1109.396 -147.387 1111.656 C-147.597 1117.104 -147.801 1122.552 -148 1128 C-152 1127.2 -155.549 1126.228 -159.395 1124.934 C-160.597 1124.531 -161.799 1124.128 -163.037 1123.713 C-164.283 1123.292 -165.529 1122.871 -166.812 1122.438 C-168.078 1122.013 -169.343 1121.588 -170.646 1121.15 C-173.765 1120.103 -176.883 1119.053 -180 1118 C-180.704 1071.633 -174.509 1026.894 -163 982 C-164.018 982.706 -165.035 983.412 -166.084 984.14 C-188.162 999.366 -210.592 1006.051 -237.504 1002.387 C-260.647 997.17 -277.829 982.471 -294 966 C-298.158 968.079 -300.051 970.004 -303.188 973.375 C-321.242 991.671 -344.864 1003.365 -370 1008 C-390 983.769 -390 983.769 -390 979 C-388.597 978.781 -387.195 978.562 -385.75 978.336 C-362.23 974.405 -342.509 966.336 -324 951 C-322.556 949.804 -321.113 948.607 -319.625 947.375 C-309.83 938.256 -301.282 927.221 -294 916 C-293.34 916 -292.68 916 -292 916 C-291.334 916.932 -290.667 917.864 -289.98 918.824 C-274.792 939.833 -256.481 964.555 -229 969 C-207.449 970.384 -189.495 962.34 -173.113 948.574 C-156.415 933.8 -145.199 915.791 -133.918 896.789 C-130.193 890.676 -126.192 884.801 -122 879 C-125.46 872.081 -132.104 867.867 -138 863 C-139.174 862.023 -140.349 861.046 -141.559 860.039 C-199.453 812.734 -269.311 789.099 -344.129 795.496 C-349.472 796.153 -354.714 796.981 -360 798 C-361.86 798.352 -363.72 798.704 -365.637 799.066 C-402.551 806.598 -436.022 821.037 -469 839 C-472.38 835.62 -474.187 833.272 -476.453 829.211 C-477.072 828.105 -477.691 826.999 -478.328 825.859 C-478.962 824.71 -479.597 823.56 -480.25 822.375 C-480.9 821.217 -481.549 820.06 -482.219 818.867 C-487 810.269 -487 810.269 -487 808 C-406.492 765.386 -320.07 745.838 -230.75 772.75 C-182.382 787.905 -140.5 815.314 -103 849 C-99.266 845.457 -96.3 841.793 -93.375 837.562 C-88.87 831.124 -84.058 825.018 -79.055 818.961 C-77 816 -77 816 -77 812 C-84.131 805.393 -91.423 799.088 -99 793 C-100.097 792.096 -101.194 791.193 -102.324 790.262 C-172.641 732.868 -262.511 703.891 -353.113 712.25 C-403.152 717.419 -450.227 731.974 -494.903 754.937 C-502.816 759 -502.816 759 -505 759 C-507.316 754.731 -509.627 750.46 -511.938 746.188 C-512.597 744.973 -513.256 743.758 -513.936 742.506 C-514.564 741.342 -515.192 740.179 -515.84 738.98 C-516.421 737.907 -517.002 736.833 -517.601 735.727 C-519 733 -519 733 -520 730 C-457.82 696.64 -391.706 677.456 -320.875 677.688 C-320.293 677.688 -320.293 677.688 -317.348 677.693 C-300.073 677.739 -283.081 678.205 -266 681 C-264.903 681.172 -263.806 681.343 -262.676 681.52 C-181.977 694.391 -114.289 733.948 -54 788 C-48.991 783.851 -44.516 779.482 -40.125 774.688 C-34.867 768.991 -29.528 763.433 -24 758 C-28.293 752.345 -33.454 748.381 -39 744 C-39.657 743.471 -39.657 743.471 -42.984 740.797 C-91.57 702.239 -150.124 672.836 -211.953 663.836 C-215 663 -215 663 -219 659 C-220.709 655.432 -222.268 651.91 -223.75 648.25 C-224.181 647.2 -224.612 646.149 -225.056 645.067 C-228.16 637.378 -230.984 629.61 -233.625 621.75 C-233.968 620.733 -234.31 619.717 -234.663 618.669 C-235.982 614.633 -237 611.274 -237 607 C-290.83 620.594 -344.562 634.406 -398.062 649.25 C-408.699 652.199 -419.348 655.106 -430 658 C-447.749 638.864 -447.749 638.864 -454 630 C-436.376 624.781 -418.453 620.747 -400.562 616.562 C-398.846 616.16 -397.13 615.757 -395.362 615.343 C-350.429 604.814 -305.365 594.872 -260.296 584.948 C-257.259 584.278 -254.227 583.586 -251.198 582.878 C-247 582 -247 582 -243 582 C-243.33 580.597 -243.66 579.195 -244 577.75 C-245 573 -245 573 -245 569 C-245.66 569.33 -246.32 569.66 -247 570 C-249.478 570.338 -251.964 570.623 -254.451 570.885 C-256.062 571.058 -257.672 571.23 -259.331 571.407 C-260.226 571.501 -260.226 571.501 -264.754 571.977 C-267.66 572.287 -270.567 572.598 -273.473 572.91 C-276.635 573.248 -279.796 573.585 -282.958 573.921 C-316.348 577.476 -349.72 581.163 -383.07 585.066 C-384.535 585.238 -385.999 585.409 -387.507 585.585 C-402.055 587.287 -416.601 588.998 -431.146 590.724 C-436.595 591.369 -442.045 592.01 -447.495 592.65 C-450.04 592.95 -452.584 593.253 -455.128 593.557 C-458.627 593.976 -462.126 594.387 -465.626 594.798 C-467.591 595.031 -469.555 595.264 -471.58 595.505 C-476.757 595.978 -481.805 596.091 -487 596 C-487.908 594.948 -488.815 593.896 -489.75 592.812 C-500.75 580.247 -512.333 568.177 -523.754 555.996 C-529.606 549.746 -535.397 543.474 -541 537 C-541.495 536.505 -541.495 536.505 -544 534 C-542.774 529.096 -540.212 527.018 -536.617 523.609 C-533.226 520.228 -530.145 516.61 -527 513 C-524.616 510.427 -522.22 507.864 -519.812 505.312 C-510.213 495.108 -500.723 484.808 -491.277 474.461 C-489.558 472.603 -487.79 470.79 -486 469 C-477.631 469.556 -469.452 470.431 -461.187 471.879 C-460.077 472.068 -458.968 472.258 -457.826 472.453 C-454.169 473.079 -450.514 473.713 -446.859 474.348 C-444.249 474.797 -441.638 475.245 -439.027 475.693 C-432.043 476.894 -425.061 478.102 -418.079 479.313 C-413.75 480.063 -409.42 480.81 -405.089 481.556 C-364.037 488.632 -323.013 495.848 -282.034 503.338 C-280.32 503.65 -278.605 503.962 -276.839 504.284 C-273.703 504.856 -270.568 505.43 -267.434 506.009 C-260.29 507.31 -253.239 508.415 -246 509 C-245.67 505.37 -245.34 501.74 -245 498 C-246.276 497.64 -247.551 497.28 -248.865 496.909 C-253.925 495.48 -258.984 494.05 -264.043 492.62 C-266.401 491.953 -268.759 491.287 -271.117 490.621 C-285.243 486.628 -299.364 482.616 -313.473 478.559 C-348.896 468.377 -384.396 458.532 -420 449 C-421.802 448.517 -423.605 448.034 -425.462 447.536 C-433.638 445.346 -441.817 443.165 -450 441 C-447.933 436.867 -445.431 434.339 -442.148 431.145 C-438.92 427.922 -435.999 424.435 -433 421 C-430.685 418.648 -428.357 416.309 -426 414 C-419.137 414.66 -412.825 416.771 -406.285 418.84 C-405.026 419.234 -403.767 419.627 -402.47 420.033 C-398.333 421.329 -394.198 422.633 -390.062 423.938 C-387.178 424.843 -384.294 425.749 -381.409 426.654 C-360.31 433.286 -339.246 440.026 -318.197 446.818 C-302.649 451.835 -287.077 456.774 -271.484 461.652 C-260.639 465.047 -249.818 468.52 -239 472 C-238.816 471.123 -238.631 470.247 -238.441 469.344 C-234.513 452.162 -228.167 435.499 -220.117 419.828 C-219 417 -219 417 -220 413 C-223.184 410.441 -223.184 410.441 -227.438 407.562 C-228.983 406.502 -230.529 405.441 -232.121 404.348 C-233.731 403.243 -235.341 402.138 -237 401 C-240.007 398.843 -243.007 396.676 -246 394.5 C-254.617 388.262 -263.299 382.12 -272 376 C-274.834 374.001 -277.667 372.001 -280.5 370 C-281.905 369.009 -283.31 368.017 -284.758 366.996 C-287.567 365.012 -290.374 363.025 -293.18 361.035 C-314.236 346.115 -335.703 331.827 -357.188 317.536 C-361.461 314.693 -365.731 311.848 -370 309 C-370.795 296.317 -371.128 283.707 -371 271 C-353.057 279.971 -336.683 294.037 -320.465 305.785 C-316.185 308.867 -311.879 311.908 -307.562 314.938 C-299.088 320.903 -290.747 327.039 -282.42 333.209 C-279.996 335.003 -277.567 336.792 -275.137 338.578 C-265.048 345.996 -255.008 353.474 -245 361 C-243.742 361.941 -242.484 362.882 -241.188 363.852 C-235.258 368.287 -229.339 372.733 -223.465 377.242 C-222.518 377.968 -221.57 378.694 -220.594 379.442 C-218.729 380.874 -216.866 382.308 -215.005 383.745 C-211.42 386.495 -208.052 388.974 -204 391 C-202.02 388.03 -200.04 385.06 -198 382 C-204.277 376.185 -210.658 370.588 -217.316 365.215 C-220.806 362.335 -224.13 359.293 -227.473 356.246 C-230.07 353.938 -232.734 351.744 -235.438 349.562 C-240.21 345.703 -244.731 341.628 -249.246 337.473 C-252.832 334.253 -256.567 331.241 -260.316 328.215 C-263.806 325.335 -267.13 322.293 -270.473 319.246 C-273.07 316.938 -275.734 314.744 -278.438 312.562 C-282.241 309.487 -285.901 306.312 -289.5 303 C-293.868 298.984 -298.368 295.206 -302.984 291.48 C-306.547 288.55 -310.023 285.53 -313.5 282.5 C-317.785 278.768 -322.084 275.075 -326.5 271.5 C-332.193 266.888 -337.705 262.079 -343.23 257.27 C-352.709 249.048 -362.351 241.02 -372 233 C-373.114 214.371 -373.117 195.781 -373.062 177.125 C-373.057 174.094 -373.053 171.063 -373.049 168.031 C-373.038 160.687 -373.021 153.344 -373 146 C-364.388 145.901 -355.871 146.287 -347.277 146.84 C-345.896 146.926 -344.515 147.013 -343.092 147.102 C-340.186 147.284 -337.281 147.468 -334.376 147.654 C-329.948 147.937 -325.52 148.214 -321.092 148.49 C-318.258 148.669 -315.424 148.848 -312.59 149.027 C-311.276 149.11 -309.962 149.192 -308.609 149.277 C-301.721 149.719 -294.864 150.263 -288 151 C-281.465 159.314 -275.268 167.815 -269.203 176.477 C-265.861 181.197 -262.442 185.852 -259 190.5 C-253.579 197.823 -248.295 205.229 -243.062 212.688 C-239.763 217.334 -236.391 221.92 -233 226.5 C-226.532 235.242 -220.24 244.094 -214 253 C-207.926 261.642 -201.825 270.26 -195.625 278.812 C-189.255 287.612 -183.017 296.499 -176.806 305.411 C-173.688 309.881 -170.563 314.347 -167.438 318.812 C-166.322 320.407 -165.207 322.002 -164.059 323.645 C-162.1 326.433 -160.116 329.203 -158.098 331.949 C-156 335 -156 335 -156 337 C-153.36 335.02 -150.72 333.04 -148 331 C-149.16 325.202 -151.724 321.034 -154.75 316.062 C-155.948 314.065 -157.146 312.068 -158.344 310.07 C-158.956 309.055 -159.568 308.039 -160.199 306.993 C-162.909 302.49 -165.58 297.964 -168.25 293.438 C-168.778 292.545 -169.306 291.653 -169.85 290.733 C-172.915 285.548 -175.964 280.354 -179 275.152 C-188.133 259.507 -197.422 243.968 -206.862 228.506 C-210.48 222.573 -214.083 216.629 -217.688 210.688 C-222.274 203.132 -226.862 195.579 -231.458 188.029 C-232.596 186.159 -233.735 184.287 -234.872 182.416 C-237.895 177.446 -240.93 172.484 -243.98 167.531 C-244.306 167.001 -244.306 167.001 -245.954 164.316 C-247.211 162.269 -248.471 160.224 -249.735 158.182 C-254 151.225 -254 151.225 -254 149 C-241.13 149.33 -228.26 149.66 -215 150 C-203.661 170.766 -203.661 170.766 -199.766 177.996 C-194.444 187.87 -189.062 197.697 -183.5 207.438 C-178.374 216.427 -173.539 225.542 -168.8 234.741 C-164.861 242.379 -160.801 249.94 -156.664 257.472 C-152.513 265.036 -148.438 272.639 -144.375 280.25 C-139.256 289.834 -134.067 299.371 -128.758 308.852 C-127.809 310.551 -126.871 312.259 -126 314 C-120.757 312.484 -116.327 310.078 -111.562 307.438 C-96.757 299.549 -81.138 293.582 -65 289 C-67.929 276.125 -71.225 263.366 -74.688 250.625 C-74.825 250.117 -74.825 250.117 -75.522 247.547 C-80.318 229.882 -85.304 212.275 -90.375 194.688 C-90.728 193.46 -91.082 192.233 -91.446 190.969 C-95.385 177.308 -99.386 163.668 -103.488 150.055 C-104.202 147.674 -104.916 145.293 -105.629 142.911 C-106.972 138.431 -108.334 133.957 -109.707 129.485 C-110.309 127.481 -110.911 125.477 -111.512 123.473 C-111.777 122.603 -111.777 122.603 -113.12 118.199 C-114 114 -114 114 -112 110 C-109.711 107.913 -107.416 105.833 -105.086 103.793 C-99.163 98.432 -93.611 92.684 -88 87 C-85.674 90.489 -85.015 93.358 -84.011 97.434 C-83.816 98.219 -83.816 98.219 -82.829 102.195 C-82.406 103.925 -81.983 105.655 -81.547 107.438 C-81.323 108.345 -81.323 108.345 -80.188 112.937 C-78.959 117.918 -77.735 122.9 -76.514 127.883 C-75.495 132.039 -74.472 136.194 -73.448 140.348 C-65.786 171.464 -58.217 202.602 -50.688 233.75 C-50.448 234.74 -50.209 235.731 -49.962 236.751 C-48.372 243.328 -46.785 249.906 -45.199 256.484 C-44.801 258.133 -44.403 259.782 -43.993 261.481 C-42.27 268.642 -40.559 275.801 -39 283 C-35.7 282.34 -32.4 281.68 -29 281 C-29.189 279.643 -29.377 278.287 -29.571 276.889 C-48.841 138.204 -48.841 138.204 -56.6 78.057 C-56.923 75.586 -57.268 73.117 -57.619 70.649 C-58.057 66.454 -58 62.218 -58 58 C-38.86 38.86 -19.72 19.72 0 0 Z M0 40 C-0.531 40.537 -0.531 40.537 -3.219 43.254 C-4.646 44.69 -6.073 46.126 -7.5 47.562 C-8.892 48.966 -10.284 50.37 -11.719 51.816 C-15.696 55.703 -19.792 59.367 -24 63 C-25.684 64.649 -27.359 66.308 -29 68 C-28.333 77.561 -27.345 87.04 -26.172 96.551 C-25.987 98.071 -25.801 99.592 -25.61 101.158 C-24.993 106.21 -24.372 111.261 -23.75 116.312 C-23.312 119.882 -22.875 123.452 -22.438 127.022 C-18.804 156.629 -15.125 186.231 -11.434 215.831 C-11.001 219.302 -10.569 222.774 -10.137 226.245 C-9.451 231.753 -8.764 237.261 -8.074 242.768 C-7.7 245.767 -7.326 248.766 -6.953 251.765 C-5.77 261.202 -4.509 270.609 -3 280 C-0.36 280 2.28 280 5 280 C7.061 267.485 8.478 254.897 9.941 242.301 C10.228 239.851 10.515 237.4 10.802 234.95 C11.41 229.758 12.016 224.566 12.622 219.374 C14.195 205.892 15.774 192.411 17.355 178.93 C17.434 178.262 17.434 178.262 17.83 174.885 C20.963 148.18 24.193 121.487 27.51 94.804 C27.683 93.405 27.855 92.005 28.033 90.564 C28.347 88.017 28.665 85.47 28.985 82.923 C29.605 77.888 30 73.084 30 68 C26.836 64.809 23.669 61.622 20.5 58.438 C19.613 57.542 18.726 56.647 17.812 55.725 C4.275 42.138 4.275 42.138 0 40 Z M-344 177 C-344 190.53 -344 204.06 -344 218 C-337.638 223.784 -331.468 229.287 -324.816 234.652 C-320.728 238.06 -316.865 241.697 -312.965 245.316 C-310.231 247.791 -307.438 250.13 -304.562 252.438 C-299.149 256.795 -294.08 261.476 -289 266.215 C-285.401 269.556 -281.707 272.779 -278 276 C-276.331 277.497 -274.664 278.997 -273 280.5 C-270.019 283.19 -267.022 285.855 -264 288.5 C-259.291 292.62 -254.645 296.808 -250 301 C-248.354 302.479 -246.708 303.958 -245.062 305.438 C-241.488 308.653 -237.928 311.885 -234.375 315.125 C-231.361 317.871 -228.332 320.579 -225.25 323.25 C-219.957 327.921 -214.824 332.752 -209.672 337.578 C-206.007 340.994 -202.298 344.353 -198.562 347.691 C-193.327 352.408 -188.17 357.211 -183 362 C-178.71 359.855 -176.913 357.722 -174 354 C-174.496 353.352 -174.496 353.352 -177.008 350.074 C-185.007 339.615 -192.914 329.098 -200.703 318.48 C-203.778 314.302 -206.881 310.146 -210 306 C-214.289 300.299 -218.53 294.565 -222.75 288.812 C-227.828 281.905 -232.979 275.06 -238.188 268.25 C-244.566 259.91 -250.818 251.488 -257 243 C-264.896 232.205 -272.881 221.492 -281.011 210.873 C-286.808 203.287 -292.474 195.612 -298.109 187.906 C-300.342 184.889 -302.655 181.931 -305 179 C-317.87 178.34 -330.74 177.68 -344 177 Z M332.098 177.438 C331.365 177.483 331.365 177.483 327.654 177.711 C326.139 177.806 324.624 177.902 323.062 178 C321.52 178.095 319.978 178.191 318.389 178.289 C314.592 178.524 310.796 178.761 307 179 C300.018 188.271 293.089 197.578 286.214 206.929 C282.503 211.973 278.764 216.995 275 222 C268.27 230.953 261.634 239.975 255 249 C247.398 259.342 239.767 269.659 232.055 279.918 C225.126 289.176 218.295 298.507 211.457 307.832 C204.778 316.927 198.009 325.94 191.133 334.887 C186.331 341.191 181.657 347.588 177 354 C182.625 360.75 182.625 360.75 186 363 C186.701 362.287 187.403 361.574 188.125 360.84 C193.584 355.329 199.139 350.085 205 345 C207.506 342.673 210.005 340.339 212.5 338 C217.588 333.233 222.742 328.579 228 324 C231.261 321.009 234.507 318.003 237.754 314.996 C243.413 309.773 249.136 304.627 254.938 299.562 C258.157 296.739 261.336 293.885 264.5 291 C268.951 286.941 273.462 282.961 278 279 C279.669 277.503 281.335 276.002 283 274.5 C285.959 271.829 288.934 269.185 291.938 266.562 C295.157 263.739 298.336 260.885 301.5 258 C306.971 253.015 312.508 248.118 318.148 243.324 C325.305 237.234 332.306 231.024 339.16 224.594 C341.681 222.291 344.334 220.133 347 218 C347 204.47 347 190.94 347 177 C341.977 177 337.1 177.126 332.098 177.438 Z M-162 389 C-165.604 393.176 -168.863 397.466 -172 402 C-172.766 403.048 -173.531 404.096 -174.32 405.176 C-208.115 453.151 -222.002 515.498 -212.445 573.358 C-208.636 594.29 -202.649 614.54 -194 634 C-193.207 634.208 -192.414 634.415 -191.598 634.629 C-187.395 635.739 -183.197 636.869 -179 638 C-177.136 638.498 -175.272 638.995 -173.352 639.508 C-107.075 657.436 -52.083 690.7 0 735 C3.832 733.084 6.04 731.28 9.125 728.375 C14.232 723.664 19.521 719.27 25 715 C26.342 713.937 27.684 712.873 29.066 711.777 C76.199 674.661 127.948 650.513 186.166 636.676 C189.785 635.813 193.393 634.911 197 634 C214.63 589.304 223.609 541.89 214 494 C213.66 492.221 213.319 490.442 212.969 488.609 C204.417 447.583 184.997 410.269 156 380 C154.867 378.802 153.734 377.605 152.566 376.371 C116.075 338.721 63.404 314.923 10.773 313.699 C7.974 313.68 5.174 313.676 2.375 313.688 C1.633 313.69 1.633 313.69 -2.12 313.702 C-65.052 314.369 -119.739 343.79 -162 389 Z M-474 500 C-498.7 526.267 -498.7 526.267 -503 532 C-500.62 536.76 -497.615 539.775 -493.938 543.625 C-489.49 548.311 -485.055 552.995 -480.75 557.812 C-478.557 560.261 -476.324 562.676 -474 565 C-461.792 564.418 -449.669 563.345 -437.515 562.07 C-434.282 561.731 -431.048 561.397 -427.814 561.063 C-423.173 560.585 -418.533 560.104 -413.894 559.622 C-401.731 558.36 -389.567 557.113 -377.402 555.871 C-376.188 555.747 -374.974 555.623 -373.723 555.495 C-351.077 553.186 -328.42 551.006 -305.75 548.938 C-304.225 548.798 -302.699 548.659 -301.128 548.515 C-276.962 546.311 -276.962 546.311 -265.721 545.411 C-264.594 545.32 -263.467 545.229 -262.306 545.136 C-259.302 544.897 -256.298 544.664 -253.294 544.432 C-249 544 -249 544 -247 543 C-247 540.69 -247 538.38 -247 536 C-247.856 535.863 -247.856 535.863 -252.19 535.17 C-255.573 534.628 -255.573 534.628 -272.487 531.922 C-274.034 531.675 -275.582 531.427 -277.176 531.172 C-280.359 530.663 -283.543 530.153 -286.726 529.644 C-288.349 529.384 -289.972 529.124 -291.645 528.857 C-300.201 527.488 -308.757 526.119 -317.312 524.75 C-318.964 524.486 -320.615 524.222 -322.316 523.949 C-323.946 523.689 -325.576 523.428 -327.255 523.159 C-328.879 522.899 -330.503 522.64 -332.175 522.372 C-335.458 521.847 -338.741 521.321 -342.024 520.796 C-350.276 519.476 -358.528 518.156 -366.781 516.836 C-382.266 514.359 -397.752 511.88 -413.236 509.394 C-420.26 508.266 -427.284 507.14 -434.308 506.013 C-437.658 505.476 -441.007 504.937 -444.357 504.399 C-448.971 503.657 -453.585 502.917 -458.2 502.177 C-459.577 501.955 -460.954 501.733 -462.373 501.504 C-471.772 500 -471.772 500 -474 500 Z M465.466 501.167 C463.84 501.427 462.215 501.687 460.541 501.954 C458.738 502.244 456.935 502.534 455.078 502.832 C453.18 503.136 451.281 503.44 449.325 503.753 C444.069 504.594 438.813 505.438 433.556 506.282 C430.258 506.811 426.959 507.341 423.661 507.87 C414.362 509.361 405.063 510.853 395.764 512.347 C381.401 514.654 367.037 516.954 352.672 519.247 C341.798 520.984 330.924 522.723 320.051 524.466 C313.43 525.526 306.809 526.585 300.187 527.64 C293.92 528.639 287.655 529.642 281.39 530.649 C279.074 531.02 276.759 531.389 274.443 531.757 C271.27 532.261 268.098 532.771 264.926 533.283 C263.145 533.568 261.364 533.852 259.528 534.146 C255.837 534.842 252.507 535.684 249 537 C249 538.98 249 540.96 249 543 C251.127 545.127 256.091 544.648 258.831 544.889 C260.755 545.06 262.679 545.231 264.662 545.408 C265.185 545.454 265.185 545.454 267.828 545.684 C271.149 545.973 274.468 546.267 277.788 546.564 C282.567 546.99 287.347 547.414 292.127 547.836 C331.176 551.29 370.2 554.915 409.188 559 C410.992 559.189 412.797 559.378 414.657 559.573 C442.831 562.532 442.831 562.532 453.233 563.691 C454.069 563.784 454.069 563.784 458.301 564.25 C459.619 564.4 460.936 564.549 462.294 564.703 C466.541 565.043 470.741 565.05 475 565 C480.25 559.842 485.167 554.557 490 549 C500.5 537.5 500.5 537.5 504 534 C502.738 528.952 500.607 527.337 496.875 523.75 C492.012 518.998 487.406 514.184 483 509 C481.524 507.33 480.045 505.664 478.562 504 C477.975 503.34 477.975 503.34 475 500 C471.772 500 468.65 500.657 465.466 501.167 Z M0 780 C-4.442 784.413 -8.878 788.831 -13.312 793.25 C-14.575 794.504 -15.838 795.759 -17.139 797.051 C-18.347 798.256 -19.556 799.461 -20.801 800.703 C-21.916 801.813 -23.032 802.924 -24.181 804.067 C-27 807 -27 807 -30 811 C-28.749 816.005 -26.023 818.14 -22.395 821.648 C-19.058 824.926 -16.056 828.461 -13 832 C-11.276 833.922 -9.547 835.838 -7.812 837.75 C-6.994 838.652 -6.175 839.555 -5.332 840.484 C-3.273 842.705 -1.141 844.859 1 847 C2.155 845.536 3.31 844.071 4.5 842.562 C10.103 835.693 16.21 829.324 22.328 822.918 C25.349 819.694 28.221 816.431 31 813 C27.099 805.198 20.441 799.387 14.285 793.324 C12 791 12 791 9.312 787.688 C6.563 784.492 3.451 782.398 0 780 Z M-52 837 C-56.862 842.415 -61.264 847.943 -65.5 853.875 C-66.059 854.656 -66.059 854.656 -68.887 858.609 C-72.278 863.392 -75.658 868.182 -79 873 C-76.738 877.525 -73.958 880.761 -70.688 884.625 C-64.245 892.343 -58.377 900.307 -52.645 908.562 C-50 912 -50 912 -47 913 C-46.417 912.042 -45.835 911.084 -45.234 910.098 C-38.877 899.771 -32.079 889.843 -25 880 C-23.333 877.667 -21.666 875.334 -20 873 C-29.27 860.125 -40.136 848.529 -51 837 C-51.33 837 -51.66 837 -52 837 Z M46.938 842 C42.424 846.519 38.141 851.133 34 856 C32.991 857.143 31.981 858.287 30.941 859.465 C29.847 860.714 28.753 861.963 27.625 863.25 C26.586 864.431 25.547 865.612 24.477 866.828 C22 870 22 870 21 874 C22.155 875.485 23.31 876.97 24.5 878.5 C31.58 887.914 37.963 897.818 44.447 907.647 C45.627 909.434 46.812 911.218 48 913 C52.201 911.6 53.199 909.191 55.688 905.562 C60.649 898.458 65.876 891.704 71.461 885.082 C72.278 884.106 73.095 883.13 73.938 882.125 C74.313 881.683 74.313 881.683 76.215 879.445 C78 877 78 877 79 873 C72.727 863.35 65.957 854.165 59 845 C56.999 842.334 54.998 839.668 53 837 C50.87 837 48.274 840.676 46.938 842 Z M0 899 C-7.281 908.588 -13.977 918.422 -20.312 928.66 C-21.88 931.191 -23.472 933.708 -25.125 936.184 C-29.007 942.087 -29.007 942.087 -28.977 946.059 C-27.62 951.532 -25.102 956.315 -22.562 961.312 C-13.57 979.533 -6.203 998.338 -1 1018 C-0.67 1017.835 -0.67 1017.835 1 1017 C1.34 1015.872 1.681 1014.744 2.031 1013.582 C9.356 989.797 18.763 967.186 30 945 C22.28 931.214 13.878 918.063 5 905 C3.664 903.002 2.33 901.003 1 899 C0.67 899 0.34 899 0 899 Z " fill="#63735c" transform="translate(628,29)"/>
<path d="M0 0 C1.036 0.821 2.073 1.642 3.141 2.488 C10.838 8.676 10.838 8.676 12 11 C5.333 19.667 -1.333 28.333 -8 37 C-11.77 35.115 -14.166 33.25 -17.312 30.5 C-24.165 24.716 -31.43 19.793 -39 15 C-39.505 14.68 -39.505 14.68 -42.059 13.062 C-78.013 -8.793 -123.055 -15.941 -163.972 -6.3 C-191.428 0.477 -219.258 11.943 -242 29 C-242.66 29 -243.32 29 -244 29 C-256.67 9.032 -256.67 9.032 -262 0 C-194.935 -67.065 -68.193 -54.419 0 0 Z " fill="#63735c" transform="translate(443,918)"/>
<path d="M0 0 C0.66 0.99 1.32 1.98 2 3 C0.126 5.98 -1.749 8.959 -3.625 11.938 C-4.669 13.597 -5.713 15.256 -6.789 16.965 C-9.801 21.687 -12.876 26.352 -16 31 C-21.097 29.571 -25.012 27.254 -29.438 24.375 C-69.643 -1.087 -117.78 -14.163 -165 -4 C-192.437 2.385 -216.946 14.472 -239 32 C-239.975 32.771 -240.949 33.542 -241.953 34.336 C-244.311 36.213 -246.657 38.105 -249 40 C-253.437 37.781 -254.833 35.938 -257.75 32 C-262.066 26.244 -266.485 20.602 -271 15 C-259.13 -8.741 -213.288 -25.371 -189.75 -33.25 C-125.552 -52.683 -54.343 -39.307 0 0 Z " fill="#63735c" transform="translate(1072,915)"/>
</svg>
